# xmcd CD Database Entry
#
# Track frame offsets:
# 150
# 11953
# 24414
# 41041
# 63621
# 74361
# 88926
# 104066
# 119426
# 133532
# 165941
# 181707
# 191479
# 201219
# 212945
# 227142
# 239542
# 250207
# 261627
# 311787
#
# Disc length: 4370 seconds
#
# Revision: 1
# Processed by: cddbd v1.4PL0 Copyright (c) Steve Scherf et al.
# Submitted via: tcd 2.0b
#
DISCID=32111014
DTITLE=Creedence Clearwater Revival - Green River and Cosmo's Factory
DYEAR=1900
DGENRE=
TTITLE0=Green River
TTITLE1=Commotion
TTITLE2=Tombstone Shadow
TTITLE3=Wrote A Song For Everyone
TTITLE4=Bad Moon Rising
TTITLE5=Lodi
TTITLE6=Cross-tie Walker
TTITLE7=Sinister Purpose
TTITLE8=The Night Time Is The Rigth Time
TTITLE9=Ramble Tamble
TTITLE10=Before You Accuse Me
TTITLE11=Travelin' Band
TTITLE12=Ooby Dooby
TTITLE13=Lookin' Out My Back Door
TTITLE14=Run Through The Jungle
TTITLE15=Up Around The Band
TTITLE16=My Baby Left Me
TTITLE17=Who'll Stop The Rain
TTITLE18=I Heard It Through The Grapewine
TTITLE19=Long As I Can See The Light
EXTD=
EXTT0=
EXTT1=
EXTT2=
EXTT3=
EXTT4=
EXTT5=
EXTT6=
EXTT7=
EXTT8=
EXTT9=
EXTT10=
EXTT11=
EXTT12=
EXTT13=
EXTT14=
EXTT15=
EXTT16=
EXTT17=
EXTT18=
EXTT19=
PLAYORDER=
